<svg width="48" height="48" viewBox="0 0 48 48" fill="none" xmlns="http://www.w3.org/2000/svg">
<path d="M8 12.2858V37.9338L18.13 33.5938L30.13 39.5938L40 35.3598V9.71378L42.606 8.59778C42.7582 8.53255 42.9242 8.50612 43.0891 8.52087C43.254 8.53561 43.4126 8.59107 43.5508 8.68227C43.689 8.77347 43.8024 8.89755 43.8808 9.04338C43.9592 9.18921 44.0001 9.35222 44 9.51778V37.9998L30 43.9998L18 37.9998L5.394 43.4018C5.24183 43.467 5.07584 43.4934 4.91093 43.4787C4.74602 43.4639 4.58736 43.4085 4.44917 43.3173C4.31099 43.2261 4.19761 43.102 4.11921 42.9562C4.04082 42.8104 3.99985 42.6473 4 42.4818V13.9998L8 12.2858ZM32.486 22.4858L24 30.9698L15.514 22.4858C13.836 20.8075 12.6933 18.6693 12.2304 16.3416C11.7676 14.0138 12.0053 11.6011 12.9136 9.40855C13.822 7.21595 15.36 5.34193 17.3334 4.02344C19.3067 2.70496 21.6267 2.00122 24 2.00122C26.3733 2.00122 28.6933 2.70496 30.6666 4.02344C32.64 5.34193 34.178 7.21595 35.0864 9.40855C35.9947 11.6011 36.2324 14.0138 35.7696 16.3416C35.3067 18.6693 34.164 20.8075 32.486 22.4858ZM24 25.3138L29.656 19.6558C30.7751 18.5371 31.5372 17.1116 31.8461 15.5597C32.155 14.0078 31.9967 12.3991 31.3913 10.9372C30.7858 9.47521 29.7605 8.22564 28.4448 7.34649C27.1292 6.46733 25.5824 5.99807 24 5.99807C22.4176 5.99807 20.8708 6.46733 19.5552 7.34649C18.2395 8.22564 17.2142 9.47521 16.6087 10.9372C16.0033 12.3991 15.845 14.0078 16.1539 15.5597C16.4628 17.1116 17.2249 18.5371 18.344 19.6558L24 25.3138Z" fill="white"/>
</svg>
